# xmcd
#
# Track frame offsets: 
#        150
#        18695
#        40368
#        77638
#        97945
#        119981
#        139266
#        156139
#        168595
#        187317
#        200843
#
# Disc length: 2922 seconds
#
# Revision: 0
# Processed by: cddbd v1.5.2PL0 Copyright (c) Steve Scherf et al.
# Submitted via: ExactAudioCopyFreeDBPlugin 1.0
#
DISCID=a50b680b
DTITLE=The Wild Feathers - Lonely is a Lifetime
DYEAR=2017
DGENRE=Pop-Folk
TTITLE0=Overnight
TTITLE1=Sleepers
TTITLE2=Goodbye Song
TTITLE3=Dont ask me to change
TTITLE4=Happy Again
TTITLE5=Leave your light on
TTITLE6=Help me out
TTITLE7=Lonely is a Lifetime
TTITLE8=On my way
TTITLE9=Into the Sun
TTITLE10=Hallelujah
EXTD=
EXTT0=
EXTT1=
EXTT2=
EXTT3=
EXTT4=
EXTT5=
EXTT6=
EXTT7=
EXTT8=
EXTT9=
EXTT10=
PLAYORDER=
